#define img_width 128
#define img_height 256
static unsigned char img_bits[] = {
   0x00, 0x00, 0x00, 0x00, 0x00, 0x42, 0xdf, 0x2a, 0x11, 0x00, 0x00, 0x00,
   0x08, 0x00, 0x00, 0x00, 0x00, 0x00, 0x00, 0x00, 0x20, 0x22, 0x74, 0x4b,
   0x52, 0x55, 0x55, 0x55, 0x51, 0x55, 0x55, 0x55, 0x00, 0x00, 0x00, 0x00,
   0x00, 0xc2, 0xdb, 0xaa, 0x84, 0x08, 0x02, 0x82, 0x04, 0x82, 0x00, 0x00,
   0x00, 0x00, 0x40, 0x00, 0x41, 0x04, 0xb6, 0x2a, 0x29, 0x51, 0x54, 0x94,
   0x50, 0x14, 0x55, 0x55, 0x00, 0x00, 0x00, 0x12, 0x08, 0xa1, 0xdb, 0x4a,
   0x42, 0x82, 0x80, 0x00, 0x85, 0x20, 0x20, 0x00, 0x00, 0x00, 0x00, 0x00,
   0x00, 0x25, 0x76, 0xab, 0x4a, 0x94, 0x2a, 0x2a, 0x10, 0x45, 0x45, 0x55,
   0x00, 0x80, 0x00, 0x00, 0x10, 0xc2, 0xdd, 0x4a, 0x24, 0x21, 0x40, 0x41,
   0x25, 0x08, 0x08, 0x00, 0x00, 0x00, 0x04, 0x00, 0x20, 0x02, 0x5b, 0x55,
   0x49, 0x8a, 0x0a, 0x14, 0x44, 0x51, 0x51, 0x55, 0x00, 0x00, 0x40, 0x84,
   0x00, 0xa0, 0x76, 0x8b, 0x04, 0x21, 0x50, 0x41, 0x11, 0x02, 0x02, 0x00,
   0x00, 0x00, 0x00, 0x00, 0x20, 0x05, 0xdd, 0xaa, 0x54, 0x4a, 0x05, 0x14,
   0x44, 0xaa, 0x54, 0x55, 0x00, 0x00, 0x00, 0x00, 0x00, 0xa2, 0xb5, 0x2a,
   0x21, 0x20, 0x50, 0x41, 0x11, 0x00, 0x02, 0x00, 0x00, 0x00, 0x00, 0x04,
   0x48, 0x82, 0x6e, 0x4b, 0x4a, 0x45, 0x05, 0x14, 0x52, 0x55, 0x54, 0x55,
   0x00, 0x00, 0x20, 0x00, 0x00, 0x90, 0xba, 0xaa, 0x20, 0x12, 0xa8, 0x42,
   0x00, 0x80, 0x80, 0x00, 0x00, 0x00, 0x01, 0x00, 0x90, 0x82, 0xee, 0x95,
   0x4a, 0xa2, 0x02, 0x48, 0x55, 0x15, 0x15, 0x55, 0x00, 0x00, 0x00, 0x08,
   0x00, 0x92, 0x35, 0x25, 0x21, 0x08, 0xa8, 0x02, 0x00, 0x48, 0x20, 0x00,
   0x00, 0x00, 0x80, 0x40, 0x10, 0x10, 0xed, 0x55, 0x8a, 0xa2, 0x02, 0x54,
   0x55, 0x89, 0x4a, 0x55, 0x00, 0x00, 0x00, 0x00, 0x40, 0x41, 0x37, 0x95,
   0x24, 0x04, 0x54, 0x01, 0x80, 0x20, 0x20, 0x00, 0x00, 0x00, 0x00, 0x00,
   0x00, 0x02, 0x6d, 0xab, 0xa4, 0x54, 0x01, 0x54, 0x15, 0x45, 0x45, 0x55,
   0x00, 0x00, 0x04, 0x00, 0x08, 0x51, 0xb7, 0x4a, 0x12, 0x02, 0x54, 0x01,
   0x22, 0x08, 0x08, 0x00, 0x00, 0x00, 0x00, 0x02, 0x10, 0x02, 0xbd, 0x55,
   0x42, 0x54, 0x01, 0x54, 0x44, 0x51, 0x51, 0x55, 0x00, 0x00, 0x40, 0x40,
   0x00, 0x51, 0xd5, 0x8a, 0x94, 0x00, 0xaa, 0x82, 0x08, 0x02, 0x02, 0x00,
   0x00, 0x00, 0x00, 0x00, 0x10, 0x81, 0xbe, 0x2a, 0x11, 0x55, 0x00, 0x14,
   0x51, 0x54, 0x54, 0x55, 0x00, 0x00, 0x00, 0x00, 0x00, 0x94, 0xd5, 0xaa,
   0x24, 0x80, 0xaa, 0x20, 0x84, 0x80, 0x00, 0x00, 0x00, 0x08, 0x00, 0x02,
   0x10, 0x11, 0xbd, 0x8a, 0xa4, 0x2a, 0x00, 0xa5, 0x10, 0x15, 0x55, 0x55,
   0x00, 0x00, 0x01, 0x00, 0x00, 0xc0, 0xd6, 0x2a, 0x01, 0x80, 0x2a, 0x00,
   0x45, 0x20, 0x00, 0x00, 0x00, 0x00, 0x00, 0x00, 0x40, 0x02, 0xbd, 0x55,
   0xaa, 0x2a, 0x80, 0x2a, 0x08, 0x45, 0x55, 0x55, 0x00, 0x00, 0x00, 0x04,
   0x08, 0xd1, 0x56, 0x25, 0x11, 0x80, 0x2a, 0x80, 0x24, 0x10, 0x00, 0x00,
   0x00, 0x00, 0x10, 0x80, 0x00, 0x81, 0x7a, 0x4d, 0xa2, 0x2a, 0x00, 0x95,
   0x80, 0x92, 0x2a, 0x55, 0x00, 0x00, 0x00, 0x00, 0x10, 0x90, 0xad, 0x95,
   0x04, 0x80, 0x2a, 0x00, 0x2a, 0x40, 0x80, 0x00, 0x00, 0x00, 0x00, 0x00,
   0x00, 0x11, 0xbb, 0x2a, 0xa9, 0x2a, 0xa0, 0xaa, 0x80, 0x8a, 0x14, 0x52,
   0x00, 0x00, 0x00, 0x01, 0x10, 0xc1, 0xd6, 0x52, 0x02, 0x80, 0x02, 0x00,
   0x2a, 0x10, 0x42, 0x08, 0x00, 0x00, 0x00, 0x04, 0x00, 0x01, 0xbd, 0x96,
   0x54, 0x15, 0xaa, 0xaa, 0x80, 0x42, 0x48, 0x21, 0x00, 0x00, 0x00, 0x00,
   0x10, 0xd0, 0xd6, 0x22, 0x01, 0x40, 0x00, 0x00, 0x2a, 0x08, 0x01, 0x44,
   0x00, 0x00, 0x04, 0x00, 0x80, 0x82, 0x5d, 0x2d, 0x55, 0x15, 0x55, 0x55,
   0x00, 0x29, 0xaa, 0x08, 0x00, 0x00, 0x00, 0x00, 0x10, 0x90, 0x76, 0x45,
   0x00, 0x40, 0x00, 0x00, 0x55, 0x40, 0x00, 0x21, 0x00, 0x00, 0x00, 0x00,
   0x00, 0x11, 0xad, 0x95, 0xaa, 0x8a, 0x54, 0x29, 0x80, 0x8a, 0x2a, 0x44,
   0x00, 0x00, 0x00, 0x01, 0x00, 0xc1, 0x76, 0x55, 0x04, 0x20, 0x02, 0x84,
   0x12, 0x20, 0x80, 0x12, 0x00, 0x00, 0x00, 0x10, 0x10, 0x81, 0xae, 0x8a,
   0x28, 0x45, 0xa4, 0x20, 0xa2, 0x0a, 0x29, 0x20, 0x00, 0x00, 0x04, 0x00,
   0x08, 0x50, 0x55, 0x55, 0x82, 0x10, 0x11, 0x8a, 0x08, 0x20, 0x84, 0x82,
   0x00, 0x08, 0x00, 0x00, 0x00, 0x41, 0xab, 0x92, 0x14, 0x22, 0x82, 0x10,
   0x21, 0xa5, 0x10, 0x14, 0x00, 0x00, 0x00, 0x00, 0x10, 0x81, 0x54, 0x2d,
   0x42, 0x08, 0x28, 0x42, 0x84, 0x00, 0x49, 0x42, 0x00, 0x00, 0x00, 0x00,
   0x00, 0x91, 0xa5, 0xea, 0x14, 0x41, 0x41, 0x88, 0x10, 0x2a, 0x41, 0x08,
   0x00, 0x00, 0x10, 0x00, 0x00, 0x40, 0xa8, 0x5a, 0x41, 0x14, 0x04, 0x21,
   0x4a, 0x00, 0x04, 0x51, 0x00, 0x00, 0x40, 0x00, 0x10, 0x89, 0xaa, 0xda,
   0x8b, 0xa0, 0x28, 0x45, 0x80, 0xaa, 0x28, 0x02, 0x00, 0x00, 0x00, 0x00,
   0x08, 0xa0, 0x6a, 0x6b, 0x27, 0x02, 0x02, 0x10, 0x15, 0x00, 0x41, 0x54,
   0x00, 0x00, 0x00, 0x00, 0x00, 0x41, 0xd5, 0xae, 0x4e, 0x54, 0xa8, 0x22,
   0x40, 0x29, 0x8a, 0x00, 0x00, 0x00, 0x00, 0x01, 0x10, 0xa8, 0xba, 0x75,
   0x1d, 0x01, 0x01, 0x88, 0x0a, 0x84, 0x10, 0x55, 0x00, 0x10, 0x00, 0x00,
   0x00, 0xa1, 0x6a, 0xdf, 0x7b, 0x24, 0x24, 0x11, 0xa0, 0x10, 0x22, 0x00,
   0x00, 0x00, 0x00, 0x10, 0x88, 0x5a, 0xdb, 0xb5, 0x6e, 0x91, 0x90, 0x40,
   0x15, 0x45, 0x49, 0x55, 0x00, 0x00, 0x00, 0x00, 0x00, 0x55, 0x6d, 0xb7,
   0xdd, 0x02, 0x02, 0x0a, 0x20, 0x10, 0x00, 0x00, 0x00, 0x00, 0x01, 0x00,
   0xb0, 0xda, 0xb6, 0xdd, 0x76, 0xa9, 0xa8, 0x50, 0x85, 0x42, 0x55, 0x55,
   0x00, 0x00, 0x40, 0x00, 0x50, 0xb5, 0xed, 0xfb, 0xff, 0x03, 0x01, 0x02,
   0x10, 0x14, 0x00, 0x00, 0x00, 0x00, 0x08, 0x00, 0x00, 0xaa, 0xb5, 0xaf,
   0x6a, 0x4b, 0x54, 0x54, 0x45, 0x41, 0x55, 0x55, 0x00, 0x00, 0x00, 0x00,
   0x00, 0x68, 0x6d, 0xfd, 0xff, 0x8f, 0x80, 0x00, 0x10, 0x14, 0x00, 0x00,
   0x00, 0x00, 0x00, 0x00, 0x88, 0xda, 0xf6, 0xb7, 0xd6, 0x0a, 0x12, 0x55,
   0x45, 0x41, 0x55, 0x55, 0x00, 0x00, 0x00, 0x01, 0x00, 0xa8, 0xad, 0xf6,
   0xfe, 0x5f, 0x22, 0x00, 0x08, 0x14, 0x00, 0x00, 0x00, 0x00, 0x00, 0x00,
   0x88, 0x52, 0xfd, 0xdf, 0xeb, 0x3f, 0x88, 0x52, 0xa2, 0x40, 0x95, 0x2a,
   0x00, 0x00, 0x00, 0x00, 0x00, 0x55, 0xab, 0x7a, 0xbf, 0x76, 0x11, 0x42,
   0x08, 0x15, 0x10, 0x40, 0x00, 0x00, 0x04, 0x10, 0x00, 0xa9, 0xda, 0xef,
   0xda, 0xbf, 0x40, 0x08, 0x21, 0x40, 0x41, 0x09, 0x00, 0x00, 0x00, 0x00,
   0x08, 0xa2, 0x76, 0xdd, 0xfb, 0xf6, 0x0a, 0x21, 0x85, 0x0a, 0x0a, 0x51,
   0x00, 0x00, 0x20, 0x00, 0x80, 0x95, 0xda, 0x77, 0xef, 0xdf, 0x20, 0x0a,
   0x28, 0x50, 0x10, 0x04, 0x00, 0x00, 0x00, 0x00, 0x08, 0xa2, 0xb6, 0xee,
   0xbd, 0xfd, 0x45, 0x50, 0x81, 0x82, 0x52, 0x21, 0x00, 0x10, 0x80, 0x00,
   0x00, 0x49, 0xdd, 0x5d, 0xf7, 0xb6, 0x11, 0x01, 0x14, 0x08, 0x00, 0x94,
   0x00, 0x00, 0x00, 0x00, 0x08, 0xaa, 0x75, 0xfb, 0xde, 0xff, 0x23, 0x54,
   0x41, 0x51, 0x55, 0x01, 0x00, 0x00, 0x00, 0x00, 0x80, 0xb0, 0xd6, 0xd6,
   0x7b, 0x6d, 0x81, 0x00, 0x14, 0x04, 0x00, 0x54, 0x00, 0x00, 0x00, 0x00,
   0x88, 0xd4, 0xde, 0x7a, 0xeb, 0xfd, 0x17, 0x55, 0xa1, 0xa8, 0xaa, 0x00,
   0x00, 0x00, 0x01, 0x00, 0x00, 0x48, 0x6b, 0xd7, 0x5f, 0xf7, 0x41, 0x00,
   0x04, 0x02, 0x00, 0x2a, 0x00, 0x00, 0x40, 0x00, 0x84, 0x28, 0xdd, 0xba,
   0xfa, 0xbe, 0x8b, 0xa4, 0x50, 0x48, 0xa9, 0x40, 0x00, 0x00, 0x00, 0x08,
   0x00, 0x50, 0x6b, 0xf7, 0xd7, 0xeb, 0x03, 0x02, 0x02, 0x21, 0x04, 0x0a,
   0x00, 0x00, 0x02, 0x00, 0x88, 0x40, 0x5e, 0x56, 0x5d, 0x7f, 0x57, 0x54,
   0x54, 0x84, 0x48, 0x20, 0x00, 0x00, 0x00, 0x00, 0x80, 0x48, 0xb5, 0xbd,
   0xfb, 0xdd, 0x03, 0x01, 0x01, 0x11, 0x20, 0x89, 0x00, 0x00, 0x00, 0x00,
   0x04, 0x40, 0x35, 0x6a, 0xab, 0xfb, 0x27, 0x24, 0x24, 0x42, 0x05, 0x11,
   0x00, 0x00, 0x40, 0x00, 0x80, 0x88, 0x4a, 0xb5, 0x6e, 0x5f, 0x8b, 0x90,
   0x90, 0x08, 0x10, 0x44, 0x00, 0x00, 0x00, 0x10, 0x84, 0x48, 0xaa, 0xaa,
   0x6d, 0xfb, 0x17, 0x02, 0x02, 0x91, 0xa2, 0x08, 0x00, 0x00, 0x02, 0x00,
   0x00, 0x40, 0x10, 0x55, 0xfd, 0xff, 0x46, 0xa8, 0x48, 0x44, 0x08, 0x22,
   0x00, 0x00, 0x00, 0x00, 0x84, 0xc8, 0x22, 0x6a, 0x53, 0xd5, 0x07, 0x01,
   0x81, 0x08, 0x41, 0x20, 0x00, 0x02, 0x40, 0x00, 0x00, 0x80, 0x54, 0x54,
   0xed, 0xff, 0x57, 0x14, 0x14, 0x22, 0x14, 0x85, 0x00, 0x00, 0x00, 0x00,
   0x84, 0x90, 0x41, 0x51, 0xad, 0x76, 0x87, 0xa0, 0x20, 0x84, 0x20, 0x10,
   0x00, 0x00, 0x00, 0x00, 0x80, 0x48, 0x15, 0xaa, 0xda, 0xfd, 0x0f, 0x02,
   0x82, 0x10, 0x89, 0x44, 0x00, 0x00, 0x00, 0x01, 0x04, 0x40, 0x55, 0xa2,
   0xb2, 0xb7, 0x5d, 0x54, 0x14, 0x22, 0x81, 0x08, 0x00, 0x00, 0x00, 0x00,
   0x80, 0x88, 0x06, 0x94, 0x6e, 0xfd, 0x07, 0x81, 0xa0, 0x08, 0x14, 0x22,
   0x00, 0x00, 0x00, 0x00, 0x04, 0x48, 0xad, 0xa2, 0xd4, 0x77, 0x2f, 0x14,
   0x05, 0x51, 0x41, 0x44, 0x00, 0x80, 0x00, 0x00, 0x40, 0x40, 0x0b, 0x94,
   0xaa, 0xde, 0x8f, 0x40, 0x28, 0x04, 0x14, 0x11, 0x00, 0x00, 0x10, 0x00,
   0x80, 0x88, 0xba, 0xa4, 0xea, 0xfa, 0x1f, 0x15, 0x81, 0x48, 0x21, 0x22,
   0x00, 0x00, 0x00, 0x00, 0x04, 0xa0, 0x06, 0x92, 0xaa, 0x6f, 0x2f, 0x40,
   0x14, 0x21, 0x84, 0x88, 0x00, 0x00, 0x00, 0x01, 0x80, 0x40, 0x7d, 0x22,
   0x55, 0xfd, 0x5e, 0x15, 0x21, 0x84, 0x14, 0x11, 0x00, 0x00, 0x00, 0x00,
   0x00, 0x88, 0x26, 0x44, 0x55, 0xdb, 0x17, 0x20, 0x94, 0x12, 0x20, 0x44,
   0x00, 0x00, 0x00, 0x00, 0x88, 0x48, 0xdd, 0x48, 0xda, 0xfe, 0x5f, 0x45,
   0x21, 0x50, 0x85, 0x10, 0x00, 0x00, 0x00, 0x00, 0x00, 0xa0, 0x2a, 0x92,
   0xaa, 0xb5, 0x1d, 0x08, 0x8a, 0x02, 0x28, 0x45, 0x00, 0x00, 0x02, 0x00,
   0x80, 0x80, 0xd6, 0x24, 0x55, 0xf7, 0x5f, 0x51, 0x20, 0xaa, 0x42, 0x10,
   0x00, 0x00, 0x00, 0x00, 0x22, 0xa8, 0x5a, 0x88, 0xda, 0x5e, 0x1b, 0x8a,
   0x4a, 0x10, 0x14, 0xa5, 0x00, 0x00, 0x00, 0x00, 0x80, 0x80, 0x56, 0x11,
   0xb5, 0x7a, 0xbf, 0x90, 0x90, 0x52, 0x21, 0x09, 0x00, 0x00, 0x20, 0x00,
   0x00, 0xa8, 0x5a, 0x44, 0xd5, 0xed, 0x06, 0x25, 0x25, 0x89, 0x94, 0xa4,
   0x00, 0x00, 0x00, 0x00, 0x84, 0x80, 0xd6, 0x08, 0x5d, 0xdb, 0x5e, 0x24,
   0x49, 0x22, 0x92, 0x24, 0x00, 0x00, 0x00, 0x10, 0x40, 0x50, 0x55, 0xa2,
   0xaa, 0x76, 0x8f, 0x92, 0x24, 0x49, 0x49, 0x92, 0x00, 0x00, 0x40, 0x00,
   0x00, 0x40, 0xad, 0x84, 0x5a, 0xd5, 0x3d, 0x92, 0x24, 0x55, 0x92, 0x24,
   0x00, 0x10, 0x00, 0x00, 0x44, 0x44, 0x5b, 0xa8, 0xb5, 0x6d, 0x47, 0x44,
   0x92, 0x88, 0x24, 0x49, 0x00, 0x00, 0x00, 0x00, 0x40, 0x48, 0x55, 0x51,
   0xab, 0xed, 0x9e, 0x94, 0x24, 0x29, 0x49, 0x52, 0x00, 0x00, 0x00, 0x00,
   0x00, 0x40, 0xab, 0xa4, 0x6a, 0xbb, 0x4f, 0x49, 0x4a, 0x45, 0x92, 0x44,
   0x00, 0x80, 0x00, 0x00, 0x40, 0x44, 0x5a, 0xa8, 0x56, 0x6b, 0x5d, 0x52,
   0x51, 0x54, 0x55, 0x55, 0x00, 0x00, 0x40, 0x00, 0x02, 0xa0, 0x55, 0xb5,
   0xd5, 0xbe, 0x87, 0x8a, 0x8a, 0x92, 0x88, 0x44, 0x00, 0x00, 0x00, 0x00,
   0x40, 0x04, 0x2b, 0xa8, 0xaa, 0xf5, 0xbe, 0x28, 0xaa, 0x94, 0x2a, 0x55,
   0x00, 0x00, 0x00, 0x00, 0x08, 0xa0, 0x96, 0x56, 0x6b, 0xaf, 0x0f, 0x55,
   0x49, 0x29, 0xa9, 0x24, 0x00, 0x00, 0x00, 0x00, 0x40, 0x44, 0x95, 0x54,
   0xd5, 0xfa, 0x5d, 0x45, 0x52, 0x4a, 0x25, 0x49, 0x00, 0x00, 0x01, 0x00,
   0x00, 0xa0, 0x4a, 0xb5, 0xaa, 0xd7, 0x97, 0x54, 0x95, 0x52, 0x4a, 0x55,
   0x00, 0x00, 0x80, 0x00, 0x42, 0x84, 0x0a, 0x55, 0x6d, 0xdd, 0x2e, 0x55,
   0xa5, 0x94, 0x54, 0x55, 0x00, 0x00, 0x00, 0x00, 0x40, 0xa0, 0xa6, 0xaa,
   0x55, 0xfb, 0x57, 0x92, 0x54, 0xa5, 0x4a, 0x92, 0x00, 0x00, 0x00, 0x00,
   0x04, 0x44, 0x85, 0x5a, 0x55, 0xd7, 0xae, 0x24, 0x25, 0x55, 0xa9, 0x54,
   0x00, 0x00, 0x00, 0x00, 0x40, 0xa0, 0x52, 0x55, 0xeb, 0xfe, 0x4b, 0x55,
   0x55, 0x2a, 0x55, 0x55, 0x00, 0x00, 0x00, 0x00, 0x40, 0x04, 0x03, 0x75,
   0xd5, 0x5a, 0x2f, 0x55, 0xca, 0xa4, 0x4a, 0x49, 0x00, 0x40, 0x00, 0x01,
   0x00, 0x60, 0x69, 0xad, 0x52, 0xf7, 0xa5, 0x54, 0x95, 0x2a, 0xa9, 0xaa,
   0x00, 0x00, 0x04, 0x00, 0x42, 0x44, 0x43, 0x75, 0xd5, 0xb6, 0x4f, 0xa5,
   0xb4, 0xaa, 0x2a, 0x55, 0x00, 0x00, 0x00, 0x00, 0x00, 0x40, 0x51, 0x8f,
   0x5a, 0xdf, 0x93, 0xaa, 0x4a, 0x55, 0x55, 0x95, 0x00, 0x00, 0x00, 0x00,
   0x40, 0x84, 0xa2, 0xb4, 0xb2, 0x7a, 0x57, 0x4a, 0x55, 0x55, 0x55, 0x55,
   0x00, 0x00, 0x00, 0x00, 0x02, 0x50, 0x49, 0x8b, 0x6a, 0xeb, 0x4b, 0x55,
   0x95, 0x54, 0xa9, 0x54, 0x00, 0x00, 0x00, 0x00, 0x44, 0x40, 0xa1, 0xaa,
   0xaa, 0xbe, 0x97, 0x54, 0x55, 0x95, 0xaa, 0xaa, 0x00, 0x00, 0x80, 0x00,
   0x40, 0xa4, 0x54, 0x91, 0x6a, 0xd5, 0x53, 0x55, 0xaa, 0xaa, 0xaa, 0xaa,
   0x00, 0x00, 0x04, 0x00, 0x40, 0x80, 0xd1, 0x26, 0x55, 0x7b, 0x4b, 0x52,
   0x55, 0x55, 0x55, 0x55, 0x80, 0x20, 0x00, 0x00, 0x00, 0xa4, 0x48, 0x49,
   0xa9, 0xf6, 0xab, 0xaa, 0xaa, 0xaa, 0xaa, 0xaa, 0x00, 0x00, 0x00, 0x00,
   0x44, 0x84, 0xa9, 0x92, 0xaa, 0xad, 0x27, 0x55, 0x55, 0x55, 0x55, 0x55,
   0x00, 0x00, 0x00, 0x00, 0x00, 0x50, 0x51, 0xa4, 0x6a, 0xfb, 0xa9, 0xaa,
   0xaa, 0xaa, 0xaa, 0xaa, 0x00, 0x00, 0x00, 0x01, 0x40, 0x80, 0xd2, 0x94,
   0x54, 0xab, 0xa7, 0x54, 0x55, 0x55, 0x55, 0x55, 0x00, 0x00, 0x10, 0x00,
   0x42, 0xa4, 0x32, 0x21, 0x55, 0xfd, 0x4b, 0x55, 0x55, 0x55, 0x55, 0x55,
   0x00, 0x00, 0x00, 0x00, 0x04, 0xa4, 0x46, 0x4a, 0xa9, 0xd5, 0x96, 0xaa,
   0xaa, 0xaa, 0xaa, 0xaa, 0x00, 0x00, 0x00, 0x00, 0x40, 0x40, 0x35, 0x91,
   0xaa, 0xfe, 0x53, 0x55, 0x55, 0x55, 0x55, 0x55, 0x00, 0x20, 0x00, 0x00,
   0x40, 0x84, 0x4a, 0x24, 0xa9, 0xaa, 0x2b, 0xa9, 0xaa, 0xaa, 0xaa, 0xaa,
   0x00, 0x00, 0x00, 0x02, 0x08, 0x50, 0x2d, 0x49, 0x6a, 0xfd, 0xa5, 0xaa,
   0xaa, 0xaa, 0xaa, 0xaa, 0x84, 0x00, 0x00, 0x00, 0x40, 0x84, 0x2a, 0x91,
   0xa4, 0xb5, 0xab, 0xaa, 0xaa, 0xaa, 0xaa, 0x5a, 0x00, 0x00, 0x00, 0x00,
   0x00, 0x50, 0x15, 0xa4, 0xaa, 0xf6, 0xa5, 0xaa, 0x56, 0x5b, 0xdb, 0xaa,
   0x00, 0x00, 0x08, 0x00, 0x42, 0xa0, 0xb6, 0x24, 0xaa, 0xed, 0x2b, 0x55,
   0xb5, 0xaa, 0xaa, 0xaa, 0x00, 0x40, 0x00, 0x00, 0x10, 0x44, 0x15, 0x90,
   0xaa, 0xba, 0xa5, 0xaa, 0xaa, 0xaa, 0xaa, 0xaa, 0x00, 0x02, 0x00, 0x08,
   0x40, 0x88, 0x6a, 0x25, 0xa9, 0xf6, 0xab, 0xaa, 0xaa, 0x6a, 0x55, 0xab,
   0x00, 0x00, 0x00, 0x00, 0x02, 0xa4, 0x16, 0x48, 0xaa, 0xba, 0xa5, 0x6a,
   0x55, 0x55, 0xb5, 0x5a, 0x10, 0x00, 0x20, 0x00, 0x40, 0x44, 0x55, 0x91,
   0xaa, 0xf5, 0x95, 0xaa, 0xd6, 0x56, 0xab, 0xaa, 0x00, 0x00, 0x00, 0x00,
   0x44, 0x90, 0x16, 0x44, 0x52, 0xee, 0xab, 0xaa, 0xaa, 0xaa, 0xaa, 0xaa,
   0x00, 0x88, 0x00, 0x00, 0x00, 0x44, 0xb5, 0x48, 0x55, 0xb9, 0x23, 0x55,
   0xad, 0xaa, 0xea, 0xaa, 0x00, 0x00, 0x00, 0x00, 0x48, 0x50, 0x2d, 0x22,
   0xa5, 0xf6, 0xab, 0xaa, 0xaa, 0xaa, 0x9e, 0x56, 0x40, 0x00, 0x00, 0x02,
   0x00, 0x44, 0x55, 0x44, 0x54, 0x55, 0xab, 0x6a, 0xd5, 0x5a, 0xb5, 0xb6,
   0x00, 0x00, 0x01, 0x00, 0x42, 0xa0, 0x2a, 0x91, 0xaa, 0xfd, 0xa7, 0xaa,
   0x5a, 0xd5, 0x56, 0xad, 0x00, 0x08, 0x10, 0x00, 0x40, 0x84, 0x56, 0x22,
   0x55, 0xd5, 0x2e, 0x55, 0x55, 0xd5, 0xb5, 0xbb, 0x00, 0x00, 0x00, 0x10,
   0x04, 0xa8, 0x2a, 0x48, 0xaa, 0x7a, 0x53, 0x55, 0x55, 0xb5, 0x56, 0x57,
   0x42, 0x00, 0x00, 0x00, 0x40, 0xa0, 0x6a, 0x81, 0x54, 0xeb, 0x4f, 0x55,
   0x55, 0xed, 0x56, 0xbd, 0x00, 0x00, 0x41, 0x00, 0x08, 0x44, 0x2b, 0x54,
   0xa5, 0xde, 0xae, 0xaa, 0xb5, 0xb7, 0xad, 0x56, 0x00, 0x00, 0x00, 0x00,
   0x40, 0x88, 0x6a, 0x01, 0xa9, 0xda, 0x2f, 0x55, 0xd5, 0x6e, 0xb5, 0xba,
   0x00, 0x02, 0x00, 0x00, 0x11, 0xa4, 0x96, 0x94, 0x54, 0x6d, 0x5b, 0x55,
   0xbd, 0xb5, 0x6b, 0x57, 0x00, 0x00, 0x80, 0x00, 0x40, 0x44, 0xb5, 0x10,
   0x55, 0xfb, 0xff, 0xad, 0x6b, 0xb7, 0xaa, 0xb6, 0x00, 0x10, 0x02, 0x00,
   0x20, 0x50, 0x55, 0x42, 0x54, 0x6d, 0x7f, 0xff, 0xde, 0xee, 0x55, 0xad,
   0x00, 0x00, 0x00, 0x04, 0x42, 0x44, 0xab, 0x08, 0xa9, 0xed, 0xed, 0xfb,
   0xb5, 0xad, 0xd5, 0xaa, 0x00, 0x00, 0x00, 0x00, 0x00, 0x90, 0x56, 0xa1,
   0x54, 0xfb, 0xff, 0xae, 0x6f, 0xb5, 0x55, 0x55, 0x00, 0x00, 0x00, 0x00,
   0x42, 0x50, 0x55, 0x05, 0x55, 0x5b, 0xef, 0x7f, 0x6d, 0x6f, 0x5b, 0xb5,
   0x00, 0x00, 0x04, 0x00, 0x10, 0xa2, 0xaa, 0x90, 0x54, 0xed, 0xfd, 0xed,
   0xd6, 0x5a, 0xd5, 0x56, 0x08, 0x00, 0x20, 0x00, 0x40, 0x44, 0xad, 0x12,
   0xa8, 0xbd, 0xbf, 0xbf, 0xbd, 0xaa, 0xb5, 0xaa, 0x00, 0x00, 0x00, 0x04,
   0x22, 0xa8, 0xaa, 0x40, 0x55, 0xeb, 0xf6, 0x6d, 0xeb, 0x55, 0x4d, 0x6d,
   0x00, 0x00, 0x00, 0x00, 0x40, 0x40, 0xab, 0x0a, 0xa9, 0xde, 0xdf, 0xdf,
   0x96, 0xb6, 0xda, 0xaa, 0x80, 0x00, 0x00, 0x00, 0x04, 0xa4, 0x56, 0x41,
   0x52, 0xb5, 0x7e, 0xbb, 0x6d, 0x55, 0x55, 0x55, 0x00, 0x08, 0x00, 0x00,
   0x50, 0x44, 0x55, 0x0a, 0xaa, 0xee, 0xf7, 0xb7, 0xaa, 0xaa, 0xb5, 0xb6,
   0x00, 0x00, 0x00, 0x00, 0x40, 0x50, 0xad, 0xa0, 0xa8, 0xb5, 0xbe, 0xda,
   0x6a, 0x6d, 0xd5, 0xaa, 0x00, 0x00, 0x00, 0x04, 0x40, 0x44, 0xab, 0x05,
   0x52, 0xd7, 0xfb, 0x57, 0xab, 0x55, 0xab, 0xaa, 0x00, 0x00, 0x04, 0x00,
   0x01, 0x50, 0xad, 0x48, 0x55, 0xbd, 0x5e, 0xb5, 0xaa, 0xaa, 0x5a, 0x5b,
   0x00, 0x20, 0x00, 0x00, 0xa4, 0x44, 0x55, 0x09, 0x54, 0xeb, 0x7b, 0xa5,
   0xaa, 0x6a, 0x55, 0xb5, 0x00, 0x00, 0x40, 0x00, 0x00, 0x50, 0xad, 0xa2,
   0xaa, 0x56, 0x4f, 0xad, 0xd6, 0x56, 0x6b, 0x55, 0x00, 0x00, 0x00, 0x00,
   0x50, 0x44, 0xab, 0x04, 0xa8, 0xf6, 0x5e, 0xa9, 0x5a, 0xad, 0xaa, 0xaa,
   0x00, 0x00, 0x00, 0x00, 0x82, 0xa8, 0x5a, 0x91, 0xaa, 0xad, 0xab, 0xaa,
   0xaa, 0x6a, 0x6d, 0x5b, 0x00, 0x00, 0x00, 0x00, 0x20, 0xa0, 0xaa, 0x12,
   0x52, 0x7b, 0x2f, 0x55, 0xd5, 0xaa, 0x55, 0xb5, 0x00, 0x20, 0x00, 0x04,
   0x42, 0x4a, 0xab, 0x42, 0xd4, 0xd6, 0xa5, 0xaa, 0xaa, 0x56, 0x55, 0x55,
   0x00, 0x00, 0x01, 0x00, 0x40, 0x48, 0xad, 0x8a, 0xaa, 0xbd, 0xaf, 0xaa,
   0x5a, 0xb5, 0x5a, 0xab, 0x00, 0x00, 0x40, 0x00, 0x02, 0x50, 0xab, 0x20,
   0xaa, 0xd6, 0x22, 0x55, 0xd5, 0xaa, 0xd5, 0x5a, 0x00, 0x00, 0x00, 0x00,
   0x50, 0x92, 0x5a, 0x45, 0xea, 0xda, 0x57, 0xaa, 0xaa, 0x56, 0x55, 0xd5,
   0x00, 0x00, 0x00, 0x00, 0x04, 0xa4, 0x56, 0x09, 0xa9, 0x75, 0x4b, 0x55,
   0x55, 0xb5, 0x56, 0x35, 0x00, 0x00, 0x00, 0x04, 0x50, 0xa4, 0xaa, 0x22,
   0x55, 0xd7, 0xab, 0xaa, 0x6a, 0x55, 0xb5, 0xd5, 0x00, 0x00, 0x00, 0x00,
   0x00, 0x50, 0xad, 0x0a, 0xaa, 0xbe, 0x96, 0x54, 0x55, 0x6b, 0x55, 0x55,
   0x00, 0x00, 0x01, 0x00, 0xa2, 0x44, 0x5b, 0x51, 0xb4, 0xe9, 0xa5, 0xaa,
   0x56, 0xd5, 0x56, 0xad, 0x00, 0x00, 0x00, 0x00, 0x08, 0xa8, 0xaa, 0x02,
   0xa9, 0xb6, 0xab, 0xaa, 0xaa, 0xaa, 0xaa, 0x55, 0x04, 0x00, 0x00, 0x00,
   0xa0, 0x40, 0xab, 0x2a, 0x55, 0x75, 0x4b, 0xaa, 0x6a, 0xab, 0x5a, 0xb5,
   0x00, 0x00, 0x08, 0x08, 0x12, 0xaa, 0xb6, 0x42, 0xaa, 0xdb, 0x55, 0x55,
   0x55, 0x55, 0x55, 0x55, 0x00, 0x00, 0x00, 0x00, 0x20, 0xa4, 0xaa, 0x4a,
   0xaa, 0xb6, 0x4b, 0x55, 0x55, 0x6d, 0x55, 0xab, 0x00, 0x02, 0x80, 0x00,
   0x44, 0x48, 0xab, 0x12, 0xa9, 0xea, 0x54, 0xaa, 0xaa, 0xaa, 0xb6, 0x5a,
   0x00, 0x00, 0x00, 0x00, 0x48, 0xa8, 0x5a, 0x45, 0xaa, 0xde, 0x49, 0x55,
   0xad, 0x55, 0x55, 0xb5, 0x00, 0x00, 0x00, 0x00, 0x20, 0xa2, 0x55, 0x15,
   0xa9, 0xb5, 0xaa, 0xaa, 0xaa, 0x6a, 0x55, 0x55, 0x00, 0x10, 0x00, 0x00,
   0x42, 0x24, 0xb7, 0x52, 0xaa, 0xea, 0x52, 0xaa, 0xaa, 0x56, 0xd5, 0xaa,
   0x00, 0x00, 0x02, 0x08, 0x28, 0xa8, 0xaa, 0x0a, 0x91, 0xde, 0x95, 0xaa,
   0xaa, 0xaa, 0x5a, 0x55, 0x00, 0x00, 0x00, 0x00, 0x40, 0xa1, 0xae, 0x2a,
   0xa5, 0xb5, 0xaa, 0xaa, 0x5a, 0xd5, 0xaa, 0xb6, 0x00, 0x00, 0x00, 0x00,
   0x12, 0x54, 0x55, 0x49, 0xaa, 0xee, 0xa5, 0x54, 0x55, 0xad, 0xaa, 0xaa,
   0x00, 0x00, 0x20, 0x00, 0xa0, 0xc8, 0xb6, 0x4a, 0xa8, 0x5a, 0x55, 0x55,
   0xd5, 0xaa, 0xb5, 0xaa, 0x00, 0x00, 0x00, 0x20, 0x22, 0x52, 0xad, 0x2a,
   0xa5, 0xf6, 0xa4, 0xaa, 0xaa, 0xaa, 0xaa, 0x56, 0x00, 0x00, 0x01, 0x00,
   0x44, 0x54, 0xab, 0x4a, 0x54, 0xd5, 0x2a, 0x55, 0x55, 0x55, 0xab, 0xaa,
   0x00, 0x00, 0x00, 0x01, 0x10, 0xa2, 0xb6, 0xaa, 0xaa, 0xbe, 0x52, 0x55,
   0xad, 0x56, 0xb5, 0x5a, 0x00, 0x00, 0x00, 0x00, 0x51, 0x56, 0x6d, 0x95,
   0xd0, 0xea, 0x4a, 0x55, 0x55, 0x55, 0xd5, 0xaa, 0x20, 0x00, 0x00, 0x10,
   0x24, 0xa9, 0xab, 0x2a, 0x55, 0x3f, 0xa9, 0xaa, 0xaa, 0x5a, 0xab, 0x5a,
   0x00, 0x04, 0x04, 0x40, 0x24, 0x51, 0xad, 0x52, 0x51, 0xf5, 0x4a, 0xaa,
   0xda, 0xaa, 0xaa, 0xaa, 0x00, 0x00, 0x00, 0x00, 0x49, 0xaa, 0xb6, 0x2a,
   0xaa, 0x5a, 0xa9, 0xaa, 0xaa, 0x6a, 0xd5, 0x4a, 0x00, 0x00, 0x00, 0x24,
   0xa4, 0xa8, 0xd6, 0xaa, 0xa8, 0xf6, 0x52, 0x55, 0x55, 0x55, 0x5b, 0xad,
   0x00, 0x20, 0x90, 0x80, 0x1a, 0xab, 0xad, 0xaa, 0x52, 0xad, 0x4a, 0x55,
   0x55, 0xab, 0xaa, 0x4a, 0x00, 0x00, 0x00, 0x24, 0x48, 0x54, 0xbb, 0x95,
   0x54, 0xed, 0x2a, 0x55, 0xb5, 0xaa, 0xaa, 0x9a, 0x00, 0x00, 0x00, 0x91,
   0xa2, 0xaa, 0x56, 0x55, 0x51, 0x3b, 0xa9, 0xaa, 0xaa, 0x56, 0xb5, 0x65,
   0x88, 0x00, 0x10, 0x22, 0x4b, 0x55, 0x6d, 0x55, 0x45, 0xf6, 0x4a, 0xaa,
   0xaa, 0x6a, 0xab, 0x8a, 0x00, 0x40, 0x02, 0xc8, 0x50, 0xb5, 0x5b, 0x95,
   0xaa, 0xad, 0x54, 0x55, 0x55, 0x55, 0x55, 0x75, 0x00, 0x00, 0x90, 0x52,
   0x52, 0x55, 0xd6, 0x2a, 0xa9, 0xfa, 0x52, 0x55, 0xb5, 0x56, 0xd5, 0xa6,
   0x00, 0x00, 0x40, 0x94, 0x54, 0xd5, 0x5d, 0x55, 0xa5, 0xad, 0x94, 0xaa,
   0x56, 0xd5, 0xb6, 0x9a, 0x00, 0x10, 0x09, 0x19, 0x55, 0x55, 0xdb, 0x55,
   0x25, 0xf7, 0xaa, 0x54, 0x55, 0x55, 0x55, 0xb5, 0x00, 0x04, 0x50, 0x46,
   0x55, 0xd5, 0xb6, 0x56, 0xca, 0xac, 0xa4, 0xaa, 0x6a, 0xab, 0xaa, 0xa5,
   0x00, 0x20, 0x45, 0x29, 0x55, 0xd5, 0xb6, 0xaa, 0x94, 0x6d, 0x49, 0x55,
   0x55, 0xad, 0x56, 0xad, 0x20, 0x00, 0xa8, 0x44, 0xb5, 0xb6, 0xed, 0x56,
   0xa5, 0x5a, 0x55, 0x55, 0x55, 0xb5, 0xb5, 0x4a, 0x40, 0x44, 0xc9, 0xa8,
   0xaa, 0xea, 0xad, 0x55, 0x95, 0xf6, 0x2a, 0x55, 0xad, 0xaa, 0xaa, 0xaa,
   0x00, 0x10, 0x32, 0x55, 0x55, 0xb5, 0x5b, 0xad, 0xaa, 0x5a, 0xa4, 0xaa,
   0xaa, 0x55, 0xd5, 0x56, 0x00, 0x51, 0x2a, 0xa9, 0x55, 0x6d, 0x7b, 0xab,
   0x92, 0x56, 0xa9, 0x54, 0x55, 0xad, 0x56, 0xa5, 0x04, 0x84, 0x4c, 0x56,
   0xb5, 0xba, 0xd7, 0xaa, 0x54, 0x7d, 0xa5, 0xaa, 0xaa, 0x6a, 0x55, 0xad,
   0x48, 0x28, 0x95, 0xb4, 0xaa, 0x76, 0xbd, 0x56, 0x25, 0xa9, 0x24, 0x55,
   0x55, 0x55, 0xb5, 0xaa, 0x00, 0xd1, 0xa1, 0xaa, 0x6a, 0xdb, 0xd5, 0xaa,
   0x4a, 0x7d, 0x55, 0xa9, 0xaa, 0xaa, 0xaa, 0xaa, 0x20, 0x45, 0xa5, 0xd6,
   0xaa, 0xbe, 0xad, 0x2a, 0xa9, 0x52, 0x92, 0xaa, 0x5a, 0xab, 0xaa, 0x0a,
   0x44, 0xb4, 0xd4, 0xaa, 0xd6, 0xd5, 0xaa, 0x52, 0x2a, 0x7d, 0x55, 0x55,
   0x55, 0xd5, 0x56, 0xd5, 0x48, 0x29, 0xa9, 0x5a, 0x95, 0xbd, 0x5b, 0xa5,
   0xaa, 0xd2, 0x54, 0x55, 0x55, 0x55, 0xb5, 0x55, 0x20, 0x56, 0x6a, 0xab,
   0x7a, 0x6b, 0x55, 0x95, 0xaa, 0x5a, 0x29, 0x55, 0xb5, 0x56, 0x55, 0x45,
   0x8a, 0x8c, 0xaa, 0x6a, 0x65, 0x5b, 0x55, 0x29, 0x5a, 0x75, 0x55, 0x55,
   0x55, 0x55, 0x55, 0xad, 0x50, 0x53, 0x6d, 0x55, 0xdb, 0xed, 0xaa, 0x52,
   0xb5, 0xaa, 0xaa, 0xaa, 0xaa, 0xaa, 0xaa, 0x4a, 0xc5, 0x92, 0xaa, 0x56,
   0xb5, 0xad, 0x55, 0x4a, 0xaa, 0xfa, 0xaa, 0xaa, 0xaa, 0xaa, 0xaa, 0x9a,
   0xa8, 0x64, 0x6b, 0xb5, 0xde, 0x56, 0x95, 0x92, 0x74, 0x55, 0x25, 0x55,
   0x55, 0x55, 0x55, 0x25, 0x72, 0xa5, 0xd6, 0x6a, 0xf5, 0xb6, 0xaa, 0xa4,
   0x44, 0x5a, 0x54, 0x55, 0x55, 0x55, 0x55, 0xa5, 0x0c, 0x5a, 0xad, 0x56,
   0xdb, 0xad, 0x4a, 0x15, 0x29, 0x75, 0x25, 0xa9, 0xaa, 0xaa, 0xaa, 0x4a,
   0xad, 0x68, 0x55, 0xd5, 0x5e, 0xab, 0x2a, 0x51, 0x45, 0x55, 0xa9, 0xaa,
   0x92, 0xa4, 0xaa, 0x4a, 0x56, 0xab, 0x6d, 0xad, 0x75, 0x6d, 0x55, 0x0a,
   0xa8, 0x6e, 0x92, 0x92, 0x54, 0x95, 0x24, 0xa9, 0x43, 0x5a, 0x55, 0x6b,
   0xd7, 0x55, 0x49, 0xa9, 0x0a, 0xb9, 0xa4, 0x54, 0x25, 0xa9, 0xaa, 0x2a,
   0x94, 0xb5, 0x6a, 0xad, 0x5d, 0xab, 0x92, 0x52, 0xd0, 0x56, 0x95, 0x92,
   0xaa, 0x92, 0x54, 0x55, 0x54, 0x6b, 0xdb, 0xea, 0xf5, 0x56, 0x55, 0x44,
   0x95, 0xba, 0xa4, 0xaa, 0x24, 0x55, 0x25, 0x49, 0xa9, 0x56, 0x55, 0xbb,
   0x57, 0x55, 0x25, 0x29, 0xa1, 0x36, 0x95, 0x24, 0x49, 0x92, 0x54, 0x92,
   0xb5, 0x55, 0xab, 0xb6, 0xb6, 0x55, 0x4a, 0x45, 0xaa, 0x6d, 0x55, 0xa9,
   0xaa, 0x24, 0x49, 0x25, 0xaa, 0xb6, 0xb6, 0xed, 0x6d, 0x55, 0x29, 0x29,
   0x51, 0x3b, 0x55, 0x25, 0x49, 0x55, 0x55, 0x4a, 0x6a, 0xad, 0x6a, 0xbb,
   0xad, 0x95, 0x4a, 0x22, 0xd5, 0x6a, 0x55, 0x4a, 0x92, 0x24, 0x91, 0x4a,
   0xad, 0xb5, 0xad, 0x6e, 0xb7, 0xaa, 0x94, 0x94, 0x68, 0xbf, 0x95, 0x54,
   0x25, 0x49, 0xaa, 0x24, 0xb5, 0x6a, 0xb5, 0x6d, 0x6d, 0x55, 0x25, 0x11,
   0x69, 0x6b, 0x55, 0x91, 0x54, 0x52, 0x25, 0x49, 0xad, 0x55, 0x6b, 0xf7,
   0x5b, 0x95, 0xa8, 0xa4, 0xd4, 0xbe, 0x92, 0x4a, 0xa2, 0x24, 0x4a, 0x25,
   0x6b, 0x5b, 0x6d, 0xaf, 0x56, 0x55, 0x25, 0x09, 0xa1, 0x77, 0x25, 0x52,
   0x8a, 0x4a, 0x51, 0x4a, 0x56, 0xb5, 0xb5, 0xdd, 0x6d, 0x25, 0x49, 0x52,
   0xba, 0x9e, 0x54, 0x89, 0x24, 0x29, 0x4a, 0x49, 0x6d, 0x6b, 0xed, 0x5b,
   0xab, 0xaa, 0x92, 0x4a, 0xc1, 0x2b, 0x01, 0x29, 0x49, 0x42, 0x55, 0x52,
   0xd5, 0xd6, 0xb6, 0x7d, 0xad, 0x4a, 0x2a, 0x24, 0x2a, 0x55, 0xaa, 0x44,
   0x92, 0x54, 0x88, 0x84, 0x5d, 0xad, 0xbd, 0xd7, 0x55, 0x55, 0x49, 0x89,
   0x48, 0x84, 0x88, 0x48, 0x92, 0x92, 0xa9, 0x2a, 0xd5, 0x5a, 0xf5, 0xba,
   0x56, 0x49, 0x52, 0x52, 0x92, 0x52, 0x12, 0x25, 0x49, 0x24, 0x12, 0x89,
   0xb6, 0x75, 0xdf, 0xb7, 0x55, 0x95, 0x4a, 0x92, 0x24, 0x4a, 0x52, 0x48,
   0x92, 0xa4, 0x52, 0x29, 0xad, 0xd6, 0x76, 0x6d, 0xad, 0x52, 0xa4, 0x24,
   0x49, 0x91, 0x84, 0x22, 0x49, 0x12, 0x4a, 0x52, 0xab, 0xd5, 0xee, 0x5b,
   0xab, 0x4a, 0x15, 0x49, 0x12, 0x92, 0x14, 0x4a, 0x92, 0xa4, 0x90, 0x24,
   0xba, 0xae, 0xbf, 0xb6, 0x2a, 0x95, 0x48, 0x92, 0xa4, 0x24, 0x62, 0x10,
   0x49, 0x92, 0x4a, 0x49, 0xeb, 0xfa, 0xf6, 0xed, 0xaa, 0xa4, 0xaa, 0x24,
   0x89, 0xa4, 0xa8, 0x52, 0x42, 0x24, 0x12, 0x49, 0x56, 0xab, 0xaf, 0x56,
   0x55, 0x29, 0x91, 0x92, 0x24, 0x11, 0x09, 0x82, 0x14, 0x49, 0xa9, 0x22,
   0x6d, 0xed, 0xfd, 0x5d, 0x55, 0x25, 0x25, 0x24, 0x49, 0x24, 0x49, 0x2a,
   0x61, 0x49, 0x22, 0x04, 0xb5, 0x7b, 0x57, 0x6b, 0x95, 0x54, 0x4a, 0x49,
   0x92, 0x92, 0x28, 0x91, 0x04, 0x24, 0x95, 0xb2, 0xae, 0xea, 0xfe, 0x56,
   0x55, 0x45, 0x91, 0x92, 0x24, 0x92, 0x22, 0x12, 0xa9, 0x44, 0x50, 0x22,
   0x75, 0xff, 0xab, 0x6d, 0x95, 0x94, 0x2a, 0x49, 0x52, 0x49, 0x88, 0x48,
   0x04, 0x91, 0x8a, 0x84, 0x6d, 0x6d, 0x6f, 0xab, 0x2a, 0x29, 0x44, 0x52,
   0x0a, 0x89, 0x12, 0x91, 0x2a, 0xa9, 0x48, 0x29, 0xab, 0xff, 0xba, 0x56,
   0x55, 0xa5, 0x29, 0x89, 0x50, 0x24, 0x4a, 0x44, 0x22, 0x02, 0x25, 0x44,
   0x7b, 0xdd, 0xef, 0x5a, 0x49, 0x24, 0x49, 0xa9, 0x92, 0xa4, 0x08, 0x15,
   0x46, 0x54, 0x44, 0x09, 0xad, 0x77, 0xb5, 0x55, 0x95, 0x4a, 0x12, 0x12,
   0x25, 0x09, 0x51, 0xa0, 0x28, 0x01, 0x09, 0xa4, 0xeb, 0xef, 0xb7, 0x56,
   0x55, 0x49, 0xa5, 0x52, 0x24, 0x29, 0x85, 0x0a, 0x41, 0x55, 0xa8, 0x08,
   0x5d, 0xbf, 0x6e, 0xad, 0x12, 0x95, 0x94, 0x24, 0x49, 0x52, 0x54, 0x50,
   0x2a, 0x84, 0x92, 0xa2, 0xf5, 0xf6, 0xda, 0x55, 0x55, 0xa1, 0x24, 0x49,
   0x92, 0x44, 0x01, 0x45, 0x82, 0x28, 0x92, 0x24, 0xff, 0xdf, 0xb7, 0xaa,
   0x12, 0x4a, 0x92, 0x24, 0x49, 0x12, 0xaa, 0x28, 0x29, 0xa5, 0x24, 0x45,
   0xd5, 0xbb, 0x56, 0xab, 0x6a, 0x95, 0xa4, 0x24, 0x49, 0x52, 0x92, 0x22,
   0xa5, 0x08, 0x49, 0x54 };
